<svg width="800" height="300" viewBox="0 0 800 300" fill="none" xmlns="http://www.w3.org/2000/svg">
<rect width="800" height="300" fill="white"/>
<g filter="url(#filter0_d_37_2)">
<rect x="115" y="65" width="170" height="170" rx="15" fill="white"/>
</g>
<path d="M228.403 123.775C228.34 123.395 228.029 123.103 227.645 123.067C227.343 123.017 220.698 122.562 220.698 122.562L215.632 117.496C215.175 116.991 214.164 117.139 213.783 117.243C213.733 117.243 212.772 117.546 211.2 118.056C209.672 113.635 206.967 109.583 202.202 109.583H201.795C200.43 107.813 198.758 107 197.347 107C186.253 107.05 180.967 120.885 179.295 127.954L171.542 130.333C169.164 131.091 169.076 131.146 168.756 133.414L162.216 183.829L211.22 193L237.777 187.276C237.777 187.226 228.451 124.256 228.403 123.775ZM208.483 118.906C207.251 119.313 205.845 119.719 204.331 120.175V119.262C204.376 116.982 204.034 114.71 203.32 112.544C205.804 112.926 207.473 115.712 208.484 118.904L208.483 118.906ZM200.329 113.13C201.139 115.519 201.516 118.035 201.439 120.557V121.014L192.873 123.652C194.55 117.39 197.642 114.297 200.329 113.13ZM197.037 110.049C197.544 110.06 198.036 110.218 198.455 110.505C194.88 112.168 191.102 116.371 189.481 124.785L182.702 126.862C184.614 120.478 189.075 110.037 197.033 110.037L197.037 110.049Z" fill="#95BF47"/>
<path d="M227.645 123.067C227.343 123.018 220.698 122.562 220.698 122.562L215.632 117.496C215.444 117.305 215.188 117.196 214.924 117.194L211.226 193L237.782 187.276L228.403 123.826C228.372 123.636 228.283 123.461 228.147 123.325C228.011 123.189 227.835 123.099 227.645 123.069V123.067Z" fill="#5E8E3E"/>
<path d="M202.204 137.758L198.906 147.49C196.913 146.525 194.735 146.006 192.521 145.967C187.35 145.967 187.097 149.209 187.097 150.023C187.097 154.455 198.702 156.156 198.702 166.595C198.702 174.806 193.482 180.073 186.474 180.073C178.062 180.073 173.753 174.853 173.753 174.853L175.99 167.395C175.99 167.395 180.397 171.198 184.151 171.198C184.599 171.215 185.047 171.141 185.466 170.98C185.885 170.819 186.267 170.575 186.589 170.262C186.911 169.949 187.167 169.574 187.34 169.16C187.513 168.746 187.6 168.301 187.596 167.852C187.596 162.02 178.069 161.769 178.069 152.24C178.069 144.229 183.844 136.424 195.449 136.424C200.009 136.491 202.192 137.754 202.192 137.754L202.204 137.758Z" fill="white"/>
<g filter="url(#filter1_d_37_2)">
<rect x="315" y="65" width="170" height="170" rx="15" fill="white"/>
</g>
<g clip-path="url(#clip0_37_2)">
<path d="M400.5 158.216C405.275 158.216 409.146 154.313 409.146 149.5C409.146 144.687 405.275 140.784 400.5 140.784C395.725 140.784 391.854 144.687 391.854 149.5C391.854 154.313 395.725 158.216 400.5 158.216Z" fill="#61DAFB"/>
<path d="M400.5 167.356C426.121 167.356 446.891 159.362 446.891 149.5C446.891 139.638 426.121 131.644 400.5 131.644C374.879 131.644 354.109 139.638 354.109 149.5C354.109 159.362 374.879 167.356 400.5 167.356Z" stroke="#61DAFB"/>
<path d="M385.16 158.428C397.971 180.796 415.224 194.932 423.696 190.001C432.168 185.07 428.651 162.94 415.84 140.572C403.029 118.204 385.776 104.068 377.304 108.999C368.832 113.93 372.349 136.06 385.16 158.428Z" stroke="#61DAFB"/>
<path d="M385.16 140.572C372.349 162.94 368.832 185.07 377.304 190.001C385.776 194.932 403.029 180.796 415.84 158.428C428.65 136.06 432.168 113.93 423.696 108.999C415.224 104.068 397.971 118.204 385.16 140.572Z" stroke="#61DAFB"/>
</g>
<g filter="url(#filter2_d_37_2)">
<rect x="515" y="65" width="170" height="170" rx="15" fill="white"/>
</g>
<g clip-path="url(#clip1_37_2)">
<path d="M600 107L561.995 128.5V171.5L600 193L638.005 171.5V128.5L600 107Z" fill="white"/>
<path d="M568.782 170.017L598.746 186.966V173.765L580.077 163.495L568.782 170.017ZM566.732 168.16V132.714L577.697 139.042V161.825L566.732 168.16ZM631.34 170.017L601.376 186.966V173.765L620.045 163.495L631.34 170.017ZM633.389 168.16V132.714L622.424 139.042V161.825L633.389 168.16ZM632.107 130.421L601.376 113.034V125.798L621.063 136.627L621.213 136.713L632.107 130.421ZM568.015 130.421L598.746 113.034V125.798L579.059 136.627L578.908 136.713L568.015 130.421Z" fill="#8ED6FB"/>
<path d="M601.376 170.762L619.794 160.635V140.569L601.376 151.204V170.762ZM598.746 170.762L580.328 160.635V140.569L598.746 151.204V170.762ZM618.547 138.247L600.057 128.077L581.567 138.247L600.057 148.925L618.547 138.247Z" fill="#1C78C0"/>
</g>
<defs>
<filter id="filter0_d_37_2" x="92" y="46" width="216" height="216" filterUnits="userSpaceOnUse" color-interpolation-filters="sRGB">
<feFlood flood-opacity="0" result="BackgroundImageFix"/>
<feColorMatrix in="SourceAlpha" type="matrix" values="0 0 0 0 0 0 0 0 0 0 0 0 0 0 0 0 0 0 127 0" result="hardAlpha"/>
<feOffset dy="4"/>
<feGaussianBlur stdDeviation="11.5"/>
<feComposite in2="hardAlpha" operator="out"/>
<feColorMatrix type="matrix" values="0 0 0 0 0 0 0 0 0 0 0 0 0 0 0 0 0 0 0.06 0"/>
<feBlend mode="normal" in2="BackgroundImageFix" result="effect1_dropShadow_37_2"/>
<feBlend mode="normal" in="SourceGraphic" in2="effect1_dropShadow_37_2" result="shape"/>
</filter>
<filter id="filter1_d_37_2" x="292" y="46" width="216" height="216" filterUnits="userSpaceOnUse" color-interpolation-filters="sRGB">
<feFlood flood-opacity="0" result="BackgroundImageFix"/>
<feColorMatrix in="SourceAlpha" type="matrix" values="0 0 0 0 0 0 0 0 0 0 0 0 0 0 0 0 0 0 127 0" result="hardAlpha"/>
<feOffset dy="4"/>
<feGaussianBlur stdDeviation="11.5"/>
<feComposite in2="hardAlpha" operator="out"/>
<feColorMatrix type="matrix" values="0 0 0 0 0 0 0 0 0 0 0 0 0 0 0 0 0 0 0.06 0"/>
<feBlend mode="normal" in2="BackgroundImageFix" result="effect1_dropShadow_37_2"/>
<feBlend mode="normal" in="SourceGraphic" in2="effect1_dropShadow_37_2" result="shape"/>
</filter>
<filter id="filter2_d_37_2" x="492" y="46" width="216" height="216" filterUnits="userSpaceOnUse" color-interpolation-filters="sRGB">
<feFlood flood-opacity="0" result="BackgroundImageFix"/>
<feColorMatrix in="SourceAlpha" type="matrix" values="0 0 0 0 0 0 0 0 0 0 0 0 0 0 0 0 0 0 127 0" result="hardAlpha"/>
<feOffset dy="4"/>
<feGaussianBlur stdDeviation="11.5"/>
<feComposite in2="hardAlpha" operator="out"/>
<feColorMatrix type="matrix" values="0 0 0 0 0 0 0 0 0 0 0 0 0 0 0 0 0 0 0.06 0"/>
<feBlend mode="normal" in2="BackgroundImageFix" result="effect1_dropShadow_37_2"/>
<feBlend mode="normal" in="SourceGraphic" in2="effect1_dropShadow_37_2" result="shape"/>
</filter>
<clipPath id="clip0_37_2">
<rect width="97" height="87" fill="white" transform="translate(352 106)"/>
</clipPath>
<clipPath id="clip1_37_2">
<rect width="86" height="86" fill="white" transform="matrix(-1 0 0 1 643 107)"/>
</clipPath>
</defs>
</svg>
